<mxfile host="app.diagrams.net" modified="2022-04-06T19:21:07.778Z" agent="5.0 (Macintosh; Intel Mac OS X 10_15_7) AppleWebKit/537.36 (KHTML, like Gecko) Chrome/100.0.4896.75 Safari/537.36" etag="EA6AZi9aFJxxoad-SFRV" version="17.4.0" type="github">
  <diagram id="tvsblLhzpfjOxUeaPz7c" name="Page-1">
    <mxGraphModel dx="262" dy="411" grid="1" gridSize="10" guides="1" tooltips="1" connect="1" arrows="1" fold="1" page="1" pageScale="1" pageWidth="850" pageHeight="1100" math="0" shadow="0">
      <root>
        <mxCell id="0" />
        <mxCell id="1" parent="0" />
        <mxCell id="cYwPm0RUeBfQOceWDUYd-1" value="Show" style="rounded=1;arcSize=10;whiteSpace=wrap;html=1;align=center;" vertex="1" parent="1">
          <mxGeometry x="90" y="120" width="100" height="40" as="geometry" />
        </mxCell>
        <mxCell id="cYwPm0RUeBfQOceWDUYd-8" style="edgeStyle=orthogonalEdgeStyle;rounded=0;orthogonalLoop=1;jettySize=auto;html=1;exitX=0.5;exitY=1;exitDx=0;exitDy=0;" edge="1" parent="1" source="cYwPm0RUeBfQOceWDUYd-1" target="cYwPm0RUeBfQOceWDUYd-1">
          <mxGeometry relative="1" as="geometry" />
        </mxCell>
        <mxCell id="cYwPm0RUeBfQOceWDUYd-9" style="edgeStyle=orthogonalEdgeStyle;rounded=0;orthogonalLoop=1;jettySize=auto;html=1;exitX=0.5;exitY=1;exitDx=0;exitDy=0;" edge="1" parent="1">
          <mxGeometry relative="1" as="geometry">
            <mxPoint x="120" y="250" as="sourcePoint" />
            <mxPoint x="120" y="250" as="targetPoint" />
          </mxGeometry>
        </mxCell>
        <mxCell id="cYwPm0RUeBfQOceWDUYd-10" value="Episode" style="rounded=1;arcSize=10;whiteSpace=wrap;html=1;align=center;" vertex="1" parent="1">
          <mxGeometry x="90" y="310" width="100" height="40" as="geometry" />
        </mxCell>
        <mxCell id="cYwPm0RUeBfQOceWDUYd-11" value="News&amp;nbsp;" style="rounded=1;arcSize=10;whiteSpace=wrap;html=1;align=center;" vertex="1" parent="1">
          <mxGeometry x="360" y="120" width="100" height="40" as="geometry" />
        </mxCell>
        <mxCell id="cYwPm0RUeBfQOceWDUYd-12" value="Videos&amp;nbsp;" style="rounded=1;arcSize=10;whiteSpace=wrap;html=1;align=center;" vertex="1" parent="1">
          <mxGeometry x="360" y="310" width="100" height="40" as="geometry" />
        </mxCell>
        <mxCell id="cYwPm0RUeBfQOceWDUYd-13" value="" style="endArrow=none;html=1;rounded=0;exitX=0.5;exitY=1;exitDx=0;exitDy=0;entryX=0.5;entryY=0;entryDx=0;entryDy=0;" edge="1" parent="1" source="cYwPm0RUeBfQOceWDUYd-1" target="cYwPm0RUeBfQOceWDUYd-10">
          <mxGeometry relative="1" as="geometry">
            <mxPoint x="150" y="280" as="sourcePoint" />
            <mxPoint x="310" y="280" as="targetPoint" />
          </mxGeometry>
        </mxCell>
        <mxCell id="cYwPm0RUeBfQOceWDUYd-6" value="has&amp;nbsp;" style="shape=rhombus;perimeter=rhombusPerimeter;whiteSpace=wrap;html=1;align=center;" vertex="1" parent="1">
          <mxGeometry x="95" y="210" width="90" height="40" as="geometry" />
        </mxCell>
        <mxCell id="cYwPm0RUeBfQOceWDUYd-16" value="" style="endArrow=none;html=1;rounded=0;entryX=0;entryY=0.5;entryDx=0;entryDy=0;exitX=0.75;exitY=1;exitDx=0;exitDy=0;" edge="1" parent="1" source="cYwPm0RUeBfQOceWDUYd-1" target="cYwPm0RUeBfQOceWDUYd-12">
          <mxGeometry relative="1" as="geometry">
            <mxPoint x="190" y="329.5" as="sourcePoint" />
            <mxPoint x="350" y="329.5" as="targetPoint" />
            <Array as="points" />
          </mxGeometry>
        </mxCell>
        <mxCell id="cYwPm0RUeBfQOceWDUYd-18" value="" style="endArrow=none;html=1;rounded=0;entryX=0;entryY=0.5;entryDx=0;entryDy=0;" edge="1" parent="1" target="cYwPm0RUeBfQOceWDUYd-11">
          <mxGeometry relative="1" as="geometry">
            <mxPoint x="190" y="139.5" as="sourcePoint" />
            <mxPoint x="350" y="139.5" as="targetPoint" />
          </mxGeometry>
        </mxCell>
        <mxCell id="cYwPm0RUeBfQOceWDUYd-7" value="has" style="shape=associativeEntity;whiteSpace=wrap;html=1;align=center;" vertex="1" parent="1">
          <mxGeometry x="240" y="120" width="70" height="40" as="geometry" />
        </mxCell>
        <mxCell id="cYwPm0RUeBfQOceWDUYd-15" value="has" style="shape=associativeEntity;whiteSpace=wrap;html=1;align=center;" vertex="1" parent="1">
          <mxGeometry x="250" y="230" width="70" height="40" as="geometry" />
        </mxCell>
        <mxCell id="cYwPm0RUeBfQOceWDUYd-23" value="Text" style="text;html=1;strokeColor=none;fillColor=none;align=center;verticalAlign=middle;whiteSpace=wrap;rounded=0;" vertex="1" parent="1">
          <mxGeometry x="230" y="320" width="60" height="30" as="geometry" />
        </mxCell>
        <mxCell id="cYwPm0RUeBfQOceWDUYd-24" value="&lt;font style=&quot;font-size: 15px&quot;&gt;High-level ERD&lt;/font&gt;" style="text;html=1;strokeColor=none;fillColor=none;align=center;verticalAlign=middle;whiteSpace=wrap;rounded=0;" vertex="1" parent="1">
          <mxGeometry x="210" y="50" width="150" height="30" as="geometry" />
        </mxCell>
        <mxCell id="cYwPm0RUeBfQOceWDUYd-26" value="&lt;font style=&quot;font-size: 15px&quot;&gt;Mid-level ERD for show&lt;/font&gt;" style="text;html=1;strokeColor=none;fillColor=none;align=center;verticalAlign=middle;whiteSpace=wrap;rounded=0;" vertex="1" parent="1">
          <mxGeometry x="200" y="430" width="170" height="30" as="geometry" />
        </mxCell>
        <mxCell id="cYwPm0RUeBfQOceWDUYd-27" value="Show" style="rounded=1;arcSize=10;whiteSpace=wrap;html=1;align=center;" vertex="1" parent="1">
          <mxGeometry x="225" y="630" width="100" height="40" as="geometry" />
        </mxCell>
        <mxCell id="cYwPm0RUeBfQOceWDUYd-28" value="Duration&amp;nbsp;" style="ellipse;whiteSpace=wrap;html=1;align=center;fontSize=15;" vertex="1" parent="1">
          <mxGeometry x="80" y="610" width="100" height="40" as="geometry" />
        </mxCell>
        <mxCell id="cYwPm0RUeBfQOceWDUYd-29" value="id" style="ellipse;whiteSpace=wrap;html=1;align=center;fontStyle=4;fontSize=15;" vertex="1" parent="1">
          <mxGeometry x="225" y="500" width="100" height="40" as="geometry" />
        </mxCell>
        <mxCell id="cYwPm0RUeBfQOceWDUYd-31" value="Genre" style="ellipse;shape=doubleEllipse;margin=3;whiteSpace=wrap;html=1;align=center;fontSize=15;" vertex="1" parent="1">
          <mxGeometry x="375" y="750" width="100" height="40" as="geometry" />
        </mxCell>
        <mxCell id="cYwPm0RUeBfQOceWDUYd-32" value="Video&amp;nbsp;" style="ellipse;shape=doubleEllipse;margin=3;whiteSpace=wrap;html=1;align=center;fontSize=15;" vertex="1" parent="1">
          <mxGeometry x="210" y="740" width="100" height="40" as="geometry" />
        </mxCell>
        <mxCell id="cYwPm0RUeBfQOceWDUYd-33" value="Reviews" style="ellipse;shape=doubleEllipse;margin=3;whiteSpace=wrap;html=1;align=center;fontSize=15;" vertex="1" parent="1">
          <mxGeometry x="410" y="640" width="90" height="40" as="geometry" />
        </mxCell>
        <mxCell id="cYwPm0RUeBfQOceWDUYd-34" value="Production Info" style="ellipse;shape=doubleEllipse;margin=3;whiteSpace=wrap;html=1;align=center;fontSize=15;" vertex="1" parent="1">
          <mxGeometry x="380" y="520" width="140" height="40" as="geometry" />
        </mxCell>
        <mxCell id="cYwPm0RUeBfQOceWDUYd-36" value="Creator&amp;nbsp;" style="ellipse;shape=doubleEllipse;margin=3;whiteSpace=wrap;html=1;align=center;fontSize=15;" vertex="1" parent="1">
          <mxGeometry x="80" y="490" width="100" height="40" as="geometry" />
        </mxCell>
        <mxCell id="cYwPm0RUeBfQOceWDUYd-38" value="" style="endArrow=none;html=1;rounded=0;fontSize=15;entryX=0;entryY=0.5;entryDx=0;entryDy=0;" edge="1" parent="1" target="cYwPm0RUeBfQOceWDUYd-33">
          <mxGeometry relative="1" as="geometry">
            <mxPoint x="325" y="650" as="sourcePoint" />
            <mxPoint x="485" y="650" as="targetPoint" />
          </mxGeometry>
        </mxCell>
        <mxCell id="cYwPm0RUeBfQOceWDUYd-39" value="" style="endArrow=none;html=1;rounded=0;fontSize=15;entryX=0;entryY=0;entryDx=0;entryDy=0;exitX=1;exitY=1;exitDx=0;exitDy=0;" edge="1" parent="1" source="cYwPm0RUeBfQOceWDUYd-27" target="cYwPm0RUeBfQOceWDUYd-31">
          <mxGeometry relative="1" as="geometry">
            <mxPoint x="335" y="660" as="sourcePoint" />
            <mxPoint x="420" y="670" as="targetPoint" />
            <Array as="points" />
          </mxGeometry>
        </mxCell>
        <mxCell id="cYwPm0RUeBfQOceWDUYd-40" value="" style="endArrow=none;html=1;rounded=0;fontSize=15;exitX=0.66;exitY=1;exitDx=0;exitDy=0;exitPerimeter=0;" edge="1" parent="1" source="cYwPm0RUeBfQOceWDUYd-27" target="cYwPm0RUeBfQOceWDUYd-32">
          <mxGeometry relative="1" as="geometry">
            <mxPoint x="335" y="680" as="sourcePoint" />
            <mxPoint x="399.8827359802748" y="765.7632713433547" as="targetPoint" />
            <Array as="points">
              <mxPoint x="280" y="700" />
            </Array>
          </mxGeometry>
        </mxCell>
        <mxCell id="cYwPm0RUeBfQOceWDUYd-41" value="" style="endArrow=none;html=1;rounded=0;fontSize=15;entryX=0.167;entryY=0;entryDx=0;entryDy=0;exitX=1;exitY=1;exitDx=0;exitDy=0;entryPerimeter=0;" edge="1" parent="1" target="cYwPm0RUeBfQOceWDUYd-27">
          <mxGeometry relative="1" as="geometry">
            <mxPoint x="160" y="524.24" as="sourcePoint" />
            <mxPoint x="224.8827359802748" y="610.0032713433548" as="targetPoint" />
            <Array as="points" />
          </mxGeometry>
        </mxCell>
        <mxCell id="cYwPm0RUeBfQOceWDUYd-42" value="" style="endArrow=none;html=1;rounded=0;fontSize=15;entryX=1;entryY=0.5;entryDx=0;entryDy=0;exitX=0;exitY=0.75;exitDx=0;exitDy=0;" edge="1" parent="1" source="cYwPm0RUeBfQOceWDUYd-27" target="cYwPm0RUeBfQOceWDUYd-28">
          <mxGeometry relative="1" as="geometry">
            <mxPoint x="355" y="700" as="sourcePoint" />
            <mxPoint x="419.8827359802748" y="785.7632713433547" as="targetPoint" />
            <Array as="points" />
          </mxGeometry>
        </mxCell>
        <mxCell id="cYwPm0RUeBfQOceWDUYd-43" value="" style="endArrow=none;html=1;rounded=0;fontSize=15;entryX=0.75;entryY=0;entryDx=0;entryDy=0;exitX=0.339;exitY=1.017;exitDx=0;exitDy=0;exitPerimeter=0;" edge="1" parent="1" source="cYwPm0RUeBfQOceWDUYd-49" target="cYwPm0RUeBfQOceWDUYd-27">
          <mxGeometry relative="1" as="geometry">
            <mxPoint x="365" y="710" as="sourcePoint" />
            <mxPoint x="429.8827359802748" y="795.7632713433547" as="targetPoint" />
            <Array as="points">
              <mxPoint x="330" y="570" />
            </Array>
          </mxGeometry>
        </mxCell>
        <mxCell id="cYwPm0RUeBfQOceWDUYd-44" value="" style="endArrow=none;html=1;rounded=0;fontSize=15;entryX=1;entryY=0;entryDx=0;entryDy=0;exitX=0;exitY=1;exitDx=0;exitDy=0;" edge="1" parent="1" source="cYwPm0RUeBfQOceWDUYd-34" target="cYwPm0RUeBfQOceWDUYd-27">
          <mxGeometry relative="1" as="geometry">
            <mxPoint x="375" y="720" as="sourcePoint" />
            <mxPoint x="439.8827359802748" y="805.7632713433547" as="targetPoint" />
            <Array as="points" />
          </mxGeometry>
        </mxCell>
        <mxCell id="cYwPm0RUeBfQOceWDUYd-46" value="Ratings" style="ellipse;shape=doubleEllipse;margin=3;whiteSpace=wrap;html=1;align=center;fontSize=15;" vertex="1" parent="1">
          <mxGeometry x="95" y="710" width="100" height="40" as="geometry" />
        </mxCell>
        <mxCell id="cYwPm0RUeBfQOceWDUYd-47" value="" style="endArrow=none;html=1;rounded=0;fontSize=15;entryX=1;entryY=0;entryDx=0;entryDy=0;exitX=0.25;exitY=1;exitDx=0;exitDy=0;" edge="1" parent="1" source="cYwPm0RUeBfQOceWDUYd-27">
          <mxGeometry relative="1" as="geometry">
            <mxPoint x="255.73991919776506" y="639.9996386929524" as="sourcePoint" />
            <mxPoint x="180" y="715.79" as="targetPoint" />
            <Array as="points" />
          </mxGeometry>
        </mxCell>
        <mxCell id="cYwPm0RUeBfQOceWDUYd-49" value="Name" style="ellipse;whiteSpace=wrap;html=1;align=center;fontSize=15;" vertex="1" parent="1">
          <mxGeometry x="320" y="470" width="100" height="40" as="geometry" />
        </mxCell>
        <mxCell id="cYwPm0RUeBfQOceWDUYd-50" value="" style="endArrow=none;html=1;rounded=0;fontSize=15;exitX=0.5;exitY=1;exitDx=0;exitDy=0;" edge="1" parent="1" source="cYwPm0RUeBfQOceWDUYd-29" target="cYwPm0RUeBfQOceWDUYd-27">
          <mxGeometry relative="1" as="geometry">
            <mxPoint x="270" y="550" as="sourcePoint" />
            <mxPoint x="380" y="640" as="targetPoint" />
          </mxGeometry>
        </mxCell>
      </root>
    </mxGraphModel>
  </diagram>
</mxfile>
